<svg width="161" height="32" viewBox="0 0 161 32" fill="none" xmlns="http://www.w3.org/2000/svg">
<path d="M152.046 31.7403V18.7773H154.176V23.7959H154.49C154.589 23.586 154.75 23.3761 154.972 23.1662C155.194 22.9564 155.484 22.7835 155.842 22.6477C156.213 22.5119 156.676 22.444 157.231 22.444C157.935 22.444 158.558 22.6045 159.101 22.9255C159.645 23.2341 160.064 23.6724 160.361 24.2403C160.669 24.8082 160.824 25.481 160.824 26.2588V31.7403H158.694V26.4255C158.694 25.6848 158.509 25.1354 158.138 24.7773C157.78 24.407 157.268 24.2218 156.601 24.2218C155.848 24.2218 155.256 24.4749 154.824 24.981C154.392 25.4749 154.176 26.1848 154.176 27.1107V31.7403H152.046Z" fill="black"/>
<path d="M145.419 31.9997C144.53 31.9997 143.727 31.8145 143.011 31.4441C142.295 31.0737 141.727 30.5367 141.307 29.833C140.9 29.1293 140.696 28.2836 140.696 27.296V27.0367C140.696 26.0491 140.9 25.2034 141.307 24.4997C141.727 23.796 142.295 23.2589 143.011 22.8886C143.727 22.5182 144.53 22.333 145.419 22.333C146.295 22.333 147.042 22.4873 147.659 22.796C148.289 23.1046 148.795 23.5305 149.178 24.0737C149.56 24.6046 149.807 25.2034 149.918 25.87L147.863 26.296C147.814 25.9133 147.696 25.5676 147.511 25.2589C147.326 24.9379 147.06 24.6849 146.715 24.4997C146.381 24.3145 145.968 24.2219 145.474 24.2219C144.968 24.2219 144.511 24.333 144.104 24.5552C143.709 24.7651 143.394 25.0861 143.159 25.5182C142.937 25.9503 142.826 26.4688 142.826 27.0737V27.2589C142.826 27.8639 142.937 28.3824 143.159 28.8145C143.394 29.2342 143.709 29.5552 144.104 29.7775C144.511 29.9997 144.968 30.1108 145.474 30.1108C146.227 30.1108 146.795 29.9194 147.178 29.5367C147.573 29.1416 147.82 28.6355 147.919 28.0182L149.974 28.4997C149.826 29.1416 149.56 29.7281 149.178 30.2589C148.795 30.7898 148.289 31.2157 147.659 31.5367C147.042 31.8454 146.295 31.9997 145.419 31.9997Z" fill="black"/>
<path d="M136.484 31.741C135.891 31.741 135.416 31.5682 135.058 31.2225C134.712 30.8645 134.539 30.383 134.539 29.7781V24.3521H132.15V22.5929H134.539V19.6484H136.669V22.5929H139.299V24.3521H136.669V29.4262C136.669 29.7966 136.842 29.9818 137.187 29.9818H139.021V31.741H136.484Z" fill="black"/>
<path d="M125.799 31.9997C125.157 31.9997 124.577 31.8886 124.058 31.6663C123.54 31.4318 123.126 31.0984 122.817 30.6663C122.521 30.2342 122.373 29.7034 122.373 29.0737C122.373 28.4565 122.521 27.9379 122.817 27.5182C123.126 27.0984 123.546 26.7836 124.077 26.5737C124.608 26.3515 125.213 26.2404 125.892 26.2404H128.54V25.6849C128.54 25.2034 128.392 24.8145 128.095 24.5182C127.799 24.2095 127.336 24.0552 126.706 24.0552C126.089 24.0552 125.62 24.2034 125.299 24.4997C124.99 24.7836 124.787 25.154 124.688 25.6108L122.725 24.9626C122.873 24.4812 123.108 24.0429 123.429 23.6478C123.762 23.2528 124.2 22.9379 124.743 22.7034C125.287 22.4565 125.953 22.333 126.743 22.333C127.941 22.333 128.879 22.6355 129.558 23.2404C130.25 23.833 130.595 24.6972 130.595 25.833V29.4256C130.595 29.796 130.768 29.9812 131.114 29.9812H131.892V31.7404H130.392C129.947 31.7404 129.583 31.6293 129.299 31.4071C129.015 31.1849 128.873 30.8824 128.873 30.4997V30.4626H128.558C128.484 30.6355 128.355 30.8454 128.169 31.0923C127.984 31.3392 127.7 31.5552 127.317 31.7404C126.947 31.9133 126.441 31.9997 125.799 31.9997ZM126.151 30.2589C126.855 30.2589 127.429 30.0614 127.873 29.6663C128.317 29.2589 128.54 28.7157 128.54 28.0367V27.8515H126.021C125.564 27.8515 125.194 27.9503 124.91 28.1478C124.626 28.3454 124.484 28.6355 124.484 29.0182C124.484 29.3886 124.632 29.691 124.929 29.9256C125.225 30.1478 125.632 30.2589 126.151 30.2589Z" fill="black"/>
<path d="M115.942 31.9997C115.028 31.9997 114.207 31.8145 113.479 31.4441C112.763 31.0614 112.195 30.5244 111.775 29.833C111.368 29.1293 111.164 28.2898 111.164 27.3145V27.0182C111.164 26.0429 111.368 25.2034 111.775 24.4997C112.195 23.796 112.763 23.2589 113.479 22.8886C114.207 22.5182 115.028 22.333 115.942 22.333C116.855 22.333 117.67 22.5182 118.386 22.8886C119.102 23.2589 119.664 23.796 120.071 24.4997C120.491 25.2034 120.701 26.0429 120.701 27.0182V27.3145C120.701 28.2898 120.491 29.1293 120.071 29.833C119.664 30.5244 119.102 31.0614 118.386 31.4441C117.67 31.8145 116.855 31.9997 115.942 31.9997ZM115.942 30.1108C116.72 30.1108 117.355 29.8639 117.849 29.37C118.343 28.8639 118.59 28.1602 118.59 27.2589V27.0737C118.59 26.1725 118.343 25.475 117.849 24.9812C117.355 24.475 116.72 24.2219 115.942 24.2219C115.164 24.2219 114.528 24.475 114.034 24.9812C113.541 25.475 113.294 26.1725 113.294 27.0737V27.2589C113.294 28.1602 113.541 28.8639 114.034 29.37C114.528 29.8639 115.164 30.1108 115.942 30.1108Z" fill="black"/>
<path d="M104.505 32C102.925 32 101.666 31.5556 100.728 30.6667C99.7894 29.7655 99.3203 28.4753 99.3203 26.7963V23.7223C99.3203 22.0432 99.7894 20.7593 100.728 19.8704C101.666 18.9692 102.925 18.5186 104.505 18.5186C106.086 18.5186 107.302 18.9507 108.154 19.8148C109.018 20.679 109.45 21.8642 109.45 23.3704V23.4815H107.265V23.3149C107.265 22.5 107.036 21.8334 106.58 21.3149C106.135 20.784 105.444 20.5186 104.505 20.5186C103.592 20.5186 102.87 20.8025 102.339 21.3704C101.82 21.926 101.561 22.6976 101.561 23.6852V26.8334C101.561 27.8087 101.82 28.5803 102.339 29.1482C102.87 29.7161 103.592 30 104.505 30C105.444 30 106.135 29.7408 106.58 29.2223C107.036 28.6914 107.265 28.0186 107.265 27.2037V26.8889H109.45V27.1482C109.45 28.6544 109.018 29.8395 108.154 30.7037C107.302 31.5679 106.086 32 104.505 32Z" fill="black"/>
<path d="M83.5957 31.7406V22.5924H85.6883V23.8702H86.0031C86.1636 23.5245 86.4537 23.1974 86.8735 22.8887C87.2932 22.5801 87.929 22.4258 88.7809 22.4258C89.4846 22.4258 90.108 22.5863 90.6513 22.9073C91.1945 23.2282 91.6142 23.6727 91.9105 24.2406C92.2191 24.8085 92.3735 25.4813 92.3735 26.2591V31.7406H90.2438V26.4258C90.2438 25.685 90.0587 25.1357 89.6883 24.7776C89.3303 24.4073 88.8179 24.2221 88.1513 24.2221C87.3982 24.2221 86.8056 24.4752 86.3735 24.9813C85.9414 25.4752 85.7253 26.185 85.7253 27.111V31.7406H83.5957Z" fill="black"/>
<path d="M76.5717 31.9997C75.6581 31.9997 74.8372 31.8145 74.1088 31.4441C73.3927 31.0614 72.8248 30.5244 72.4051 29.833C71.9976 29.1293 71.7939 28.2898 71.7939 27.3145V27.0182C71.7939 26.0429 71.9976 25.2034 72.4051 24.4997C72.8248 23.796 73.3927 23.2589 74.1088 22.8886C74.8372 22.5182 75.6581 22.333 76.5717 22.333C77.4853 22.333 78.3001 22.5182 79.0162 22.8886C79.7322 23.2589 80.2939 23.796 80.7013 24.4997C81.1211 25.2034 81.331 26.0429 81.331 27.0182V27.3145C81.331 28.2898 81.1211 29.1293 80.7013 29.833C80.2939 30.5244 79.7322 31.0614 79.0162 31.4441C78.3001 31.8145 77.4853 31.9997 76.5717 31.9997ZM76.5717 30.1108C77.3495 30.1108 77.9853 29.8639 78.4791 29.37C78.9729 28.8639 79.2199 28.1602 79.2199 27.2589V27.0737C79.2199 26.1725 78.9729 25.475 78.4791 24.9812C77.9853 24.475 77.3495 24.2219 76.5717 24.2219C75.7939 24.2219 75.1581 24.475 74.6643 24.9812C74.1705 25.475 73.9236 26.1725 73.9236 27.0737V27.2589C73.9236 28.1602 74.1705 28.8639 74.6643 29.37C75.1581 29.8639 75.7939 30.1108 76.5717 30.1108Z" fill="black"/>
<path d="M67.4104 31.741V22.5929H69.5401V31.741H67.4104ZM68.466 21.4262C68.0833 21.4262 67.75 21.3028 67.466 21.0558C67.1944 20.7966 67.0586 20.4571 67.0586 20.0373C67.0586 19.6176 67.1944 19.2842 67.466 19.0373C67.75 18.7781 68.0833 18.6484 68.466 18.6484C68.8734 18.6484 69.2067 18.7781 69.466 19.0373C69.7376 19.2842 69.8734 19.6176 69.8734 20.0373C69.8734 20.4571 69.7376 20.7966 69.466 21.0558C69.2067 21.3028 68.8734 21.4262 68.466 21.4262Z" fill="black"/>
<path d="M62.4281 31.741C61.8355 31.741 61.3602 31.5682 61.0021 31.2225C60.6564 30.8645 60.4836 30.383 60.4836 29.7781V24.3521H58.0947V22.5929H60.4836V19.6484H62.6132V22.5929H65.2429V24.3521H62.6132V29.4262C62.6132 29.7966 62.7861 29.9818 63.1318 29.9818H64.9651V31.741H62.4281Z" fill="black"/>
<path d="M51.7423 31.9997C51.1004 31.9997 50.5201 31.8886 50.0016 31.6663C49.4831 31.4318 49.0695 31.0984 48.7609 30.6663C48.4646 30.2342 48.3164 29.7034 48.3164 29.0737C48.3164 28.4565 48.4646 27.9379 48.7609 27.5182C49.0695 27.0984 49.4892 26.7836 50.0201 26.5737C50.551 26.3515 51.1559 26.2404 51.8349 26.2404H54.4831V25.6849C54.4831 25.2034 54.3349 24.8145 54.0386 24.5182C53.7423 24.2095 53.2794 24.0552 52.6497 24.0552C52.0324 24.0552 51.5633 24.2034 51.2423 24.4997C50.9337 24.7836 50.73 25.154 50.6312 25.6108L48.6683 24.9626C48.8164 24.4812 49.051 24.0429 49.372 23.6478C49.7053 23.2528 50.1436 22.9379 50.6868 22.7034C51.23 22.4565 51.8966 22.333 52.6868 22.333C53.8843 22.333 54.8226 22.6355 55.5016 23.2404C56.1929 23.833 56.5386 24.6972 56.5386 25.833V29.4256C56.5386 29.796 56.7115 29.9812 57.0571 29.9812H57.8349V31.7404H56.3349C55.8905 31.7404 55.5263 31.6293 55.2423 31.4071C54.9584 31.1849 54.8164 30.8824 54.8164 30.4997V30.4626H54.5016C54.4275 30.6355 54.2979 30.8454 54.1127 31.0923C53.9275 31.3392 53.6436 31.5552 53.2608 31.7404C52.8905 31.9133 52.3843 31.9997 51.7423 31.9997ZM52.0942 30.2589C52.7979 30.2589 53.372 30.0614 53.8164 29.6663C54.2608 29.2589 54.4831 28.7157 54.4831 28.0367V27.8515H51.9646C51.5078 27.8515 51.1374 27.9503 50.8534 28.1478C50.5695 28.3454 50.4275 28.6355 50.4275 29.0182C50.4275 29.3886 50.5757 29.691 50.872 29.9256C51.1683 30.1478 51.5757 30.2589 52.0942 30.2589Z" fill="black"/>
<path d="M41.0537 31.7409L38.0537 22.5928H40.313L42.5722 30.1854H42.887L45.1648 22.5928H47.4241L44.4241 31.7409H41.0537Z" fill="black"/>
<path d="M32.3012 31.9997C31.3876 31.9997 30.5666 31.8145 29.8382 31.4441C29.1222 31.0614 28.5543 30.5244 28.1345 29.833C27.7271 29.1293 27.5234 28.2898 27.5234 27.3145V27.0182C27.5234 26.0429 27.7271 25.2034 28.1345 24.4997C28.5543 23.796 29.1222 23.2589 29.8382 22.8886C30.5666 22.5182 31.3876 22.333 32.3012 22.333C33.2148 22.333 34.0296 22.5182 34.7456 22.8886C35.4617 23.2589 36.0234 23.796 36.4308 24.4997C36.8506 25.2034 37.0605 26.0429 37.0605 27.0182V27.3145C37.0605 28.2898 36.8506 29.1293 36.4308 29.833C36.0234 30.5244 35.4617 31.0614 34.7456 31.4441C34.0296 31.8145 33.2148 31.9997 32.3012 31.9997ZM32.3012 30.1108C33.079 30.1108 33.7148 29.8639 34.2086 29.37C34.7024 28.8639 34.9494 28.1602 34.9494 27.2589V27.0737C34.9494 26.1725 34.7024 25.475 34.2086 24.9812C33.7148 24.475 33.079 24.2219 32.3012 24.2219C31.5234 24.2219 30.8876 24.475 30.3938 24.9812C29.9 25.475 29.6531 26.1725 29.6531 27.0737V27.2589C29.6531 28.1602 29.9 28.8639 30.3938 29.37C30.8876 29.8639 31.5234 30.1108 32.3012 30.1108Z" fill="black"/>
<path d="M16.5742 31.7406V22.5924H18.6668V23.8702H18.9816C19.1421 23.5245 19.4322 23.1974 19.852 22.8887C20.2717 22.5801 20.9075 22.4258 21.7594 22.4258C22.4631 22.4258 23.0866 22.5863 23.6298 22.9073C24.173 23.2282 24.5927 23.6727 24.889 24.2406C25.1977 24.8085 25.352 25.4813 25.352 26.2591V31.7406H23.2224V26.4258C23.2224 25.685 23.0372 25.1357 22.6668 24.7776C22.3088 24.4073 21.7964 24.2221 21.1298 24.2221C20.3767 24.2221 19.7841 24.4752 19.352 24.9813C18.9199 25.4752 18.7038 26.185 18.7038 27.111V31.7406H16.5742Z" fill="black"/>
<path d="M5.18164 31.7406V22.5924H7.27423V23.8702H7.58904C7.74954 23.5245 8.03966 23.1974 8.45941 22.8887C8.87917 22.5801 9.51497 22.4258 10.3668 22.4258C11.0705 22.4258 11.694 22.5863 12.2372 22.9073C12.7804 23.2282 13.2001 23.6727 13.4964 24.2406C13.8051 24.8085 13.9594 25.4813 13.9594 26.2591V31.7406H11.8298V26.4258C11.8298 25.685 11.6446 25.1357 11.2742 24.7776C10.9162 24.4073 10.4039 24.2221 9.73719 24.2221C8.9841 24.2221 8.39151 24.4752 7.95941 24.9813C7.52732 25.4752 7.31127 26.185 7.31127 27.111V31.7406H5.18164Z" fill="black"/>
<path d="M0.314453 31.7403V18.7773H2.55519V31.7403H0.314453Z" fill="black"/>
<path d="M76.279 13.4811C75.3655 13.4811 74.5568 13.2898 73.8531 12.907C73.1618 12.512 72.6185 11.9626 72.2235 11.2589C71.8408 10.5428 71.6494 9.70951 71.6494 8.7589V8.53667C71.6494 7.57371 71.8408 6.74038 72.2235 6.03668C72.6062 5.33297 73.1432 4.78976 73.8346 4.40705C74.5259 4.01198 75.3222 3.81445 76.2235 3.81445C77.1124 3.81445 77.8901 4.01198 78.5568 4.40705C79.2235 4.78976 79.742 5.33297 80.1124 6.03668C80.4827 6.74038 80.6679 7.56137 80.6679 8.49964V9.2589H73.7976C73.8222 9.97495 74.0753 10.549 74.5568 10.9811C75.0383 11.4132 75.6309 11.6293 76.3346 11.6293C77.026 11.6293 77.5383 11.4811 77.8716 11.1848C78.205 10.8762 78.458 10.5305 78.6309 10.1478L80.3901 11.0552C80.2173 11.3885 79.9642 11.7466 79.6309 12.1293C79.3099 12.4996 78.8778 12.8206 78.3346 13.0922C77.7914 13.3515 77.1062 13.4811 76.279 13.4811ZM73.8161 7.64779H78.5013C78.4519 7.04285 78.2173 6.56137 77.7975 6.20334C77.3901 5.84532 76.8593 5.6663 76.205 5.6663C75.5259 5.6663 74.9827 5.84532 74.5753 6.20334C74.1679 6.56137 73.9148 7.04285 73.8161 7.64779Z" fill="black"/>
<path d="M67.4378 13.2225C66.8452 13.2225 66.3699 13.0496 66.0119 12.704C65.6662 12.3459 65.4934 11.8645 65.4934 11.2595V5.83359H63.1045V4.07433H65.4934V1.12988H67.623V4.07433H70.2526V5.83359H67.623V10.9077C67.623 11.278 67.7958 11.4632 68.1415 11.4632H69.9749V13.2225H67.4378Z" fill="black"/>
<path d="M56.7521 13.4811C56.1101 13.4811 55.5299 13.37 55.0114 13.1478C54.4928 12.9132 54.0793 12.5799 53.7706 12.1478C53.4743 11.7157 53.3262 11.1848 53.3262 10.5552C53.3262 9.93791 53.4743 9.41939 53.7706 8.99964C54.0793 8.57988 54.499 8.26507 55.0299 8.05519C55.5607 7.83297 56.1657 7.72186 56.8447 7.72186H59.4928V7.16631C59.4928 6.68482 59.3447 6.29593 59.0484 5.99964C58.7521 5.691 58.2891 5.53668 57.6595 5.53668C57.0422 5.53668 56.5731 5.68482 56.2521 5.98112C55.9435 6.26507 55.7397 6.63544 55.641 7.09223L53.678 6.44408C53.8262 5.9626 54.0607 5.52433 54.3817 5.12927C54.7151 4.73421 55.1533 4.41939 55.6965 4.18482C56.2397 3.93791 56.9064 3.81445 57.6965 3.81445C58.8941 3.81445 59.8323 4.11692 60.5113 4.72186C61.2027 5.31445 61.5484 6.17865 61.5484 7.31445V10.907C61.5484 11.2774 61.7212 11.4626 62.0669 11.4626H62.8447V13.2219H61.3447C60.9002 13.2219 60.536 13.1107 60.2521 12.8885C59.9681 12.6663 59.8262 12.3638 59.8262 11.9811V11.9441H59.5113C59.4373 12.1169 59.3076 12.3268 59.1225 12.5737C58.9373 12.8206 58.6533 13.0367 58.2706 13.2219C57.9002 13.3947 57.3941 13.4811 56.7521 13.4811ZM57.1039 11.7404C57.8076 11.7404 58.3817 11.5428 58.8262 11.1478C59.2706 10.7404 59.4928 10.1972 59.4928 9.51816V9.33297H56.9743C56.5175 9.33297 56.1472 9.43174 55.8632 9.62927C55.5793 9.8268 55.4373 10.1169 55.4373 10.4996C55.4373 10.87 55.5854 11.1725 55.8817 11.407C56.178 11.6293 56.5854 11.7404 57.1039 11.7404Z" fill="black"/>
<path d="M46.0635 13.2224L43.0635 4.07422H45.3227L47.582 11.6668H47.8968L50.1746 4.07422H52.4338L49.4338 13.2224H46.0635Z" fill="black"/>
<path d="M37.311 13.4811C36.3974 13.4811 35.5764 13.2959 34.848 12.9256C34.132 12.5428 33.5641 12.0058 33.1443 11.3145C32.7369 10.6107 32.5332 9.77124 32.5332 8.79594V8.49964C32.5332 7.52433 32.7369 6.68482 33.1443 5.98112C33.5641 5.27742 34.132 4.74038 34.848 4.37001C35.5764 3.99964 36.3974 3.81445 37.311 3.81445C38.2246 3.81445 39.0394 3.99964 39.7554 4.37001C40.4715 4.74038 41.0332 5.27742 41.4406 5.98112C41.8603 6.68482 42.0702 7.52433 42.0702 8.49964V8.79594C42.0702 9.77124 41.8603 10.6107 41.4406 11.3145C41.0332 12.0058 40.4715 12.5428 39.7554 12.9256C39.0394 13.2959 38.2246 13.4811 37.311 13.4811ZM37.311 11.5922C38.0888 11.5922 38.7246 11.3453 39.2184 10.8515C39.7122 10.3453 39.9591 9.64161 39.9591 8.74038V8.55519C39.9591 7.65396 39.7122 6.95643 39.2184 6.4626C38.7246 5.95643 38.0888 5.70334 37.311 5.70334C36.5332 5.70334 35.8974 5.95643 35.4036 6.4626C34.9097 6.95643 34.6628 7.65396 34.6628 8.55519V8.74038C34.6628 9.64161 34.9097 10.3453 35.4036 10.8515C35.8974 11.3453 36.5332 11.5922 37.311 11.5922Z" fill="black"/>
<path d="M28.1484 13.2227V0.259766H30.2781V13.2227H28.1484Z" fill="black"/>
<path d="M23.3203 13.2227V0.259766H25.4499V13.2227H23.3203Z" fill="black"/>
<path d="M15.465 13.4811C14.823 13.4811 14.2428 13.37 13.7242 13.1478C13.2057 12.9132 12.7921 12.5799 12.4835 12.1478C12.1872 11.7157 12.0391 11.1848 12.0391 10.5552C12.0391 9.93791 12.1872 9.41939 12.4835 8.99964C12.7921 8.57988 13.2119 8.26507 13.7428 8.05519C14.2736 7.83297 14.8786 7.72186 15.5576 7.72186H18.2057V7.16631C18.2057 6.68482 18.0576 6.29593 17.7613 5.99964C17.465 5.691 17.002 5.53668 16.3724 5.53668C15.7551 5.53668 15.286 5.68482 14.965 5.98112C14.6563 6.26507 14.4526 6.63544 14.3539 7.09223L12.3909 6.44408C12.5391 5.9626 12.7736 5.52433 13.0946 5.12927C13.4279 4.73421 13.8662 4.41939 14.4094 4.18482C14.9526 3.93791 15.6193 3.81445 16.4094 3.81445C17.607 3.81445 18.5452 4.11692 19.2242 4.72186C19.9156 5.31445 20.2613 6.17865 20.2613 7.31445V10.907C20.2613 11.2774 20.4341 11.4626 20.7798 11.4626H21.5576V13.2219H20.0576C19.6131 13.2219 19.2489 13.1107 18.965 12.8885C18.681 12.6663 18.5391 12.3638 18.5391 11.9811V11.9441H18.2242C18.1502 12.1169 18.0205 12.3268 17.8353 12.5737C17.6502 12.8206 17.3662 13.0367 16.9835 13.2219C16.6131 13.3947 16.107 13.4811 15.465 13.4811ZM15.8168 11.7404C16.5205 11.7404 17.0946 11.5428 17.5391 11.1478C17.9835 10.7404 18.2057 10.1972 18.2057 9.51816V9.33297H15.6872C15.2304 9.33297 14.86 9.43174 14.5761 9.62927C14.2921 9.8268 14.1502 10.1169 14.1502 10.4996C14.1502 10.87 14.2983 11.1725 14.5946 11.407C14.8909 11.6293 15.2983 11.7404 15.8168 11.7404Z" fill="black"/>
<path d="M4.81481 13.4815C3.90123 13.4815 3.08024 13.284 2.35185 12.8889C1.6358 12.4815 1.06173 11.8951 0.629629 11.1296C0.209876 10.3519 0 9.40123 0 8.27778V5.2037C0 3.52469 0.469135 2.24074 1.40741 1.35185C2.34568 0.450617 3.60493 0 5.18518 0C6.76542 0 7.98147 0.425926 8.83332 1.27778C9.68517 2.11728 10.1111 3.25309 10.1111 4.68519V4.75926H7.92591V4.61111C7.92591 4.11728 7.82715 3.67284 7.62962 3.27778C7.43209 2.88272 7.12962 2.57407 6.72221 2.35185C6.31481 2.11728 5.80246 2 5.18518 2C4.2716 2 3.54938 2.28395 3.01851 2.85185C2.5 3.40741 2.24074 4.17901 2.24074 5.16667V8.31481C2.24074 9.29012 2.5 10.0679 3.01851 10.6481C3.54938 11.2284 4.28394 11.5185 5.22221 11.5185C6.16048 11.5185 6.84567 11.2654 7.27777 10.7593C7.70986 10.2531 7.92591 9.60494 7.92591 8.81481V8.59259H4.64814V6.7037H10.1111V13.2222H8.07406V11.9444H7.75925C7.66048 12.1667 7.50616 12.4012 7.29628 12.6481C7.08641 12.8827 6.78394 13.0802 6.38888 13.2407C6.00616 13.4012 5.48147 13.4815 4.81481 13.4815Z" fill="black"/>
</svg>
